<svg xmlns="http://www.w3.org/2000/svg" xmlns:svg="http://www.w3.org/2000/svg" id="Layer_1" width="30" height="30" x="0" y="0" enable-background="new -9 11 30 30" version="1.1" viewBox="-9 11 30 30" xml:space="preserve"><metadata id="metadata3392"/><g id="g3412" transform="matrix(1.25,0,0,1.25,-1.5,-6.5)"><g id="g3414"><circle id="ellipse3416" cx="6" cy="26" r="12" fill="#b90000"/></g></g><path id="path3426" fill="#fff" d="M 4.625,34.5 C 5,34.875 5.5,35.125 6,35.125 c 0.625,0 1.125,-0.25 1.5,-0.625 0.375,-0.375 0.625,-0.875 0.625,-1.375 0,-0.625 -0.25,-1 -0.625,-1.375 C 7.125,31.25 6.5,31 5.875,31 5.25,31 4.875,31.25 4.5,31.625 4.125,32 3.875,32.5 3.875,33 4,33.625 4,34.125 4.625,34.5 Z M 7.375,28.625 8,16.875 l -3.5,0 0.25,11.75 2.625,0 z"/></svg>