<svg xmlns="http://www.w3.org/2000/svg" xmlns:xlink="http://www.w3.org/1999/xlink" width="54" height="54" x="0" y="0" enable-background="new 0 0 54 54" version="1.1" viewBox="0 0 54 54" xml:space="preserve"><g id="Layer_40" display="none"><rect width="691.333" height="784" x="-52.333" y="-452" fill="#464445" display="inline"/></g><g id="Dark"><g><g><path fill="#5F6368" fill-rule="evenodd" d="M39.701,24.33c-0.953-7.119-7.035-12.616-14.416-12.616 c-8.041,0-14.56,6.52-14.56,14.561c0,8.042,6.519,14.56,14.56,14.56c4.022,0,7.663-1.63,10.298-4.266l-2.231-2.231 c-2.064,2.065-4.916,3.343-8.067,3.343c-6.299,0-11.405-5.107-11.405-11.405c0-6.299,5.106-11.405,11.405-11.405 c5.622,0,10.282,4.071,11.222,9.423c-1.445,0.126-2.765,0.437-3.866,0.883l4.343,4.343c0.539,0.539,1.413,0.539,1.951,0 l4.339-4.338C42.251,24.763,41.03,24.472,39.701,24.33z" clip-rule="evenodd"/></g></g></g><g id="Layer_5" display="none"><path fill="#E30613" fill-rule="evenodd" d="M0,0v54h54V0H0z M47,47H7V7h40V47 z" clip-rule="evenodd" display="inline" opacity=".3"/></g><g id="name" display="none"><text fill="#646363" display="inline" font-family="'UniversLTStd-Cn'" font-size="8" transform="matrix(1 0 0 1 4.1891 50.4886)">reload</text></g></svg>